<?xml version="1.0" standalone="no"?>
<!DOCTYPE svg PUBLIC "-//W3C//DTD SVG 1.1//EN" "http://www.w3.org/Graphics/SVG/1.1/DTD/svg11.dtd">
<!--Generator: Xara Designer (www.xara.com), SVG filter version: 6.1.0.6-->
<svg stroke-width="0.501" stroke-linejoin="bevel" fill-rule="evenodd" xmlns:xlink="http://www.w3.org/1999/xlink" xmlns="http://www.w3.org/2000/svg" version="1.1" overflow="visible" width="768pt" height="195pt" viewBox="0 0 768 195">
 <defs>
	</defs>
 <g id="Document" fill="none" stroke="black" font-family="Times New Roman" font-size="16" transform="scale(1 -1)">
  <g id="Spread" transform="translate(0 -195)">
   <g id="Layer 1">
    <g id="Group" fill-rule="nonzero" stroke-linejoin="round" stroke-linecap="round" stroke="none">
     <g id="Group_1" stroke-width="6.419" fill="#00bfcb" stroke-miterlimit="79.8403193612775">
      <g id="Group_2">
       <path d="M 34.306,158.009 L 34.306,112.185 C 34.306,107.882 33.553,104.583 32.047,102.289 C 30.541,99.994 28.067,98.273 24.624,97.125 C 31.079,94.974 34.306,89.954 34.306,82.066 L 34.306,36.242 C 34.306,28.784 35.632,23.835 38.286,21.397 C 40.939,18.959 45.636,17.74 52.377,17.74 L 57.325,17.74 L 57.325,2.25 L 52.377,2.25 C 40.473,2.25 31.581,4.545 25.7,9.134 C 19.963,13.581 17.095,22.401 17.095,35.596 L 17.095,78.193 C 17.095,82.209 16.27,85.078 14.621,86.799 C 12.971,88.52 10.21,89.38 6.338,89.38 L 2.25,89.38 L 2.25,104.87 L 6.338,104.87 C 10.21,104.87 12.971,105.731 14.621,107.452 C 16.27,109.173 17.095,112.041 17.095,116.057 L 17.095,158.654 C 17.095,171.849 19.963,180.67 25.7,185.116 C 31.581,189.706 40.473,192 52.377,192 L 57.325,192 L 57.325,176.511 L 52.377,176.511 C 45.636,176.511 40.939,175.292 38.286,172.853 C 35.632,170.415 34.306,165.467 34.306,158.009 Z" marker-start="none" marker-end="none"/>
      </g>
     </g>
     <g id="Group_3" stroke-width="4.277" fill="#351a90" stroke-miterlimit="79.8403193612775">
      <g id="Group_4">
       <path d="M 79.415,159.115 L 102.954,159.115 L 137.812,91.554 L 172.312,159.115 L 196.21,159.115 L 196.21,35.133 L 172.132,35.133 L 172.132,112.038 L 145.179,57.413 L 129.906,57.413 L 103.313,111.499 L 103.313,35.133 L 79.415,35.133 L 79.415,159.115 Z" marker-start="none" marker-end="none"/>
       <path d="M 242.234,58.671 L 234.687,35.133 L 207.735,35.133 L 250.859,159.115 L 274.937,159.115 L 318.061,35.133 L 291.288,35.133 L 283.741,58.671 L 242.234,58.671 Z M 276.913,79.874 L 262.898,123.537 L 248.882,79.874 L 276.913,79.874 Z" marker-start="none" marker-end="none"/>
       <path d="M 347.698,85.804 L 309.065,159.115 L 338.174,159.115 L 360.276,112.936 L 382.556,159.115 L 411.486,159.115 L 372.853,85.804 L 372.853,35.133 L 347.698,35.133 L 347.698,85.804 Z" marker-start="none" marker-end="none"/>
       <path d="M 481.206,108.983 L 526.487,35.133 L 496.479,35.133 L 464.855,87.421 L 450.121,68.015 L 450.121,35.133 L 424.965,35.133 L 424.965,159.115 L 450.121,159.115 L 450.121,105.569 L 489.292,159.115 L 519.12,159.115 L 481.206,108.983 Z" marker-start="none" marker-end="none"/>
       <path d="M 542.661,159.115 L 567.817,159.115 L 567.817,35.133 L 542.661,35.133 L 542.661,159.115 Z" marker-start="none" marker-end="none"/>
       <path d="M 663.391,81.312 L 663.391,159.115 L 687.289,159.115 L 687.289,35.133 L 666.266,35.133 L 617.931,111.858 L 617.931,35.133 L 594.033,35.133 L 594.033,159.115 L 614.876,159.115 L 663.391,81.312 Z" marker-start="none" marker-end="none"/>
      </g>
     </g>
     <g id="Group_5" stroke-width="6.419" fill="#00bfcb" stroke-miterlimit="79.8403193612775">
      <g id="Group_6">
       <path d="M 734.56,158.009 L 734.56,112.185 C 734.56,107.882 735.313,104.583 736.819,102.289 C 738.325,99.994 740.799,98.273 744.241,97.125 C 737.787,94.974 734.56,89.954 734.56,82.066 L 734.56,36.242 C 734.56,28.784 733.233,23.835 730.58,21.397 C 727.927,18.959 723.23,17.74 716.489,17.74 L 711.54,17.74 L 711.54,2.25 L 716.489,2.25 C 728.393,2.25 737.285,4.545 743.166,9.134 C 748.903,13.581 751.771,22.401 751.771,35.596 L 751.771,78.193 C 751.771,82.209 752.596,85.078 754.245,86.799 C 755.894,88.52 758.655,89.38 762.528,89.38 L 766.615,89.38 L 766.615,104.87 L 762.528,104.87 C 758.655,104.87 755.894,105.731 754.245,107.452 C 752.596,109.173 751.771,112.041 751.771,116.057 L 751.771,158.654 C 751.771,171.849 748.903,180.67 743.166,185.116 C 737.285,189.706 728.393,192 716.489,192 L 711.54,192 L 711.54,176.511 L 716.489,176.511 C 723.23,176.511 727.927,175.292 730.58,172.853 C 733.233,170.415 734.56,165.467 734.56,158.009 Z" marker-start="none" marker-end="none"/>
      </g>
     </g>
    </g>
   </g>
  </g>
 </g>
</svg>
